<svg width="32" height="43" viewBox="0 0 32 43" fill="none" xmlns="http://www.w3.org/2000/svg">
<path d="M8.00001 20.9999H3.00001C1.89544 20.9999 1.00001 20.1045 1.00001 18.9999V13.9999C1.00001 12.8954 1.89544 11.9999 3.00001 11.9999H8.00001C9.10458 11.9999 10 12.8954 10 13.9999V18.9999C10 20.1045 9.10458 20.9999 8.00001 20.9999Z" fill="#8059BA"/>
<path d="M12 18.9999V13.9999C12 12.8954 12.8954 11.9999 14 11.9999H19C20.1046 11.9999 21 12.8954 21 13.9999V18.9999C21 20.1045 20.1046 20.9999 19 20.9999H14C12.8954 20.9999 12 20.1045 12 18.9999Z" fill="#8059BA"/>
<path d="M8.00001 31.9999H3.00001C1.89544 31.9999 1.00001 31.1045 1.00001 29.9999V24.9999C1.00001 23.8954 1.89544 22.9999 3.00001 22.9999H8.00001C9.10458 22.9999 10 23.8954 10 24.9999V29.9999C10 31.1045 9.10458 31.9999 8.00001 31.9999Z" fill="#8059BA"/>
<path d="M12 29.9999V24.9999C12 23.8954 12.8954 22.9999 14 22.9999H19C20.1046 22.9999 21 23.8954 21 24.9999V29.9999C21 31.1045 20.1046 31.9999 19 31.9999H14C12.8954 31.9999 12 31.1045 12 29.9999Z" fill="#8059BA"/>
<path d="M8.00001 42.9999H3.00001C1.89544 42.9999 1.00001 42.1045 1.00001 40.9999V35.9999C1.00001 34.8954 1.89544 33.9999 3.00001 33.9999H8.00001C9.10458 33.9999 10 34.8954 10 35.9999V40.9999C10 42.1045 9.10458 42.9999 8.00001 42.9999Z" fill="#8059BA"/>
<path d="M12 40.9999V35.9999C12 34.8954 12.8954 33.9999 14 33.9999H19C20.1046 33.9999 21 34.8954 21 35.9999V40.9999C21 42.1045 20.1046 42.9999 19 42.9999H14C12.8954 42.9999 12 42.1045 12 40.9999Z" fill="#8059BA"/>
<path d="M19 10H14C12.8954 10 12 9.10458 12 8.00001V3.00001C12 1.89544 12.8954 1.00001 14 1.00001H19C20.1046 1.00001 21 1.89544 21 3.00001V8.00001C21 9.10458 20.1046 10 19 10Z" fill="#8059BA"/>
<path d="M23 8.00001V3.00001C23 1.89544 23.8954 1.00001 25 1.00001H30C31.1046 1.00001 32 1.89544 32 3.00001V8.00001C32 9.10458 31.1046 10 30 10H25C23.8954 10 23 9.10458 23 8.00001Z" fill="#8059BA"/>
<path d="M30 31.9999H25C23.8954 31.9999 23 31.1045 23 29.9999V24.9999C23 23.8954 23.8954 22.9999 25 22.9999H30C31.1046 22.9999 32 23.8954 32 24.9999V29.9999C32 31.1045 31.1046 31.9999 30 31.9999Z" fill="#8059BA"/>
<path d="M8.80293 8.72142C7.17352 10.2555 3.93262 10.5449 2.42404 8.89179C2.2304 8.6796 2.04768 8.45063 1.88158 8.21101C0.806489 6.66002 0.552699 4.30669 1.77604 2.86974C2.18341 2.39124 2.68914 1.94822 3.22207 1.60917C4.55776 0.759387 6.44605 0.684487 7.7888 1.52308C8.09394 1.71364 8.3897 1.94109 8.66276 2.1923C10.404 3.79421 10.5256 7.09953 8.80293 8.72142V8.72142Z" fill="#8059BA"/>
</svg>
